<?xml version="1.0" encoding="UTF-8" standalone="no"?>
<svg
   xmlns:dc="http://purl.org/dc/elements/1.1/"
   xmlns:cc="http://creativecommons.org/ns#"
   xmlns:rdf="http://www.w3.org/1999/02/22-rdf-syntax-ns#"
   xmlns:svg="http://www.w3.org/2000/svg"
   xmlns="http://www.w3.org/2000/svg"
   xmlns:sodipodi="http://sodipodi.sourceforge.net/DTD/sodipodi-0.dtd"
   xmlns:inkscape="http://www.inkscape.org/namespaces/inkscape"
   version="1.1"
   x="0px"
   y="0px"
   viewBox="0 0 147.16087 159.69499"
   xml:space="preserve"
   id="svg3995"
   sodipodi:docname="astronaut.svg"
   width="147.16087"
   height="159.69499"
   inkscape:version="0.92.4 (5da689c313, 2019-01-14)"><metadata
   id="metadata4001"><rdf:RDF><cc:Work
       rdf:about=""><dc:format>image/svg+xml</dc:format><dc:type
         rdf:resource="http://purl.org/dc/dcmitype/StillImage" /><dc:title></dc:title></cc:Work></rdf:RDF></metadata><defs
   id="defs3999" /><sodipodi:namedview
   pagecolor="#ffffff"
   bordercolor="#666666"
   borderopacity="1"
   objecttolerance="10"
   gridtolerance="10"
   guidetolerance="10"
   inkscape:pageopacity="0"
   inkscape:pageshadow="2"
   inkscape:window-width="1920"
   inkscape:window-height="1017"
   id="namedview3997"
   showgrid="false"
   fit-margin-top="0"
   fit-margin-left="0"
   fit-margin-right="0"
   fit-margin-bottom="0"
   inkscape:zoom="0.828125"
   inkscape:cx="-147.86746"
   inkscape:cy="246.89498"
   inkscape:window-x="-8"
   inkscape:window-y="-8"
   inkscape:window-maximized="1"
   inkscape:current-layer="svg3995" />
<style
   type="text/css"
   id="style3858">
	.st0{fill:#000B49;}
	.st1{fill:#E6E7E8;}
	.st2{fill:#CECEDB;}
	.st3{fill:#9393A0;}
	.st4{fill:#FFFFFF;}
	.st5{fill:#FAFCFF;}
	.st6{fill:#A3B6C9;}
	.st7{fill:#BCCCD8;}
	.st8{fill:#576D7C;}
	.st9{fill:#8396A5;}
	.st10{fill:#DBDBDB;}
	.st11{fill:#91A1AF;}
	.st12{fill:#CADDEA;}
	.st13{fill:#37536D;}
	.st14{fill:#284256;}
	.st15{fill:#3F617A;}
	.st16{fill:#B79743;}
	.st17{fill:#804E20;}
	.st18{fill:#533512;}
	.st19{fill:#EFDA1A;}
	.st20{fill:#CE962B;}
	.st21{fill:#71AA42;}
	.st22{fill:#9FCC46;}
	.st23{fill:#4E7134;}
	.st24{fill:#E3EBA6;}
	.st25{fill:#98C943;}
	.st26{fill:#B6D338;}
	.st27{fill:#E9553E;}
	.st28{fill:#AC1F23;}
	.st29{fill:#EF876A;}
	.st30{fill:#E02527;}
	.st31{fill:#E0EBB9;}
	.st32{fill:#FFF38F;}
	.st33{fill:#FCFDFF;}
	.st34{fill:#C3C3C3;}
	.st35{fill:#FBCF5E;}
	.st36{fill:#DFB444;}
	.st37{fill:#FADA87;}
	.st38{fill:#A41E22;}
	.st39{fill:#CF2027;}
	.st40{fill:#E89289;}
	.st41{fill:#297239;}
	.st42{fill:#549D57;}
	.st43{fill:#C4D0D9;}
</style>

<g
   id="COSmO"
   transform="translate(-787.86746,-599.2)">
	<g
   id="g3992">
		<g
   id="g3880">
			<path
   class="st5"
   d="m 849.8,700.2 c 0,0 -17.1,-6.5 -22.9,-4.1 -5.8,2.3 -6.7,12.3 -7.3,13.6 -0.6,1.2 -14.4,2.3 -18,-3.6 -3.6,-5.9 -2,-20.8 5.4,-28.5 7.4,-7.7 19.2,-10 32.3,-4.1 13.1,5.8 13.9,24.5 10.5,26.7 z"
   id="path3860"
   inkscape:connector-curvature="0"
   style="fill:#fafcff" />
			<path
   class="st6"
   d="m 822,682.9 c 0,0 6.8,9.9 7.1,13.5 0,0 -2.8,2.4 -4.8,1.6 0,0 -8.6,-6.2 -8.6,-7.9 0,-1.8 6.3,-7.2 6.3,-7.2 z"
   id="path3862"
   inkscape:connector-curvature="0"
   style="fill:#a3b6c9" />
			<path
   class="st7"
   d="m 820.2,674.2 c 3.8,4.1 7,12.3 1.1,16.7 -5.9,4.4 -12.5,-2.1 -14.6,-4.3 -2.1,-2.2 -4.3,-7.7 0.4,-12.4 4.8,-4.7 11.2,-2 13.1,0 z"
   id="path3864"
   inkscape:connector-curvature="0"
   style="fill:#bcccd8" />
			<path
   class="st7"
   d="m 799.8,698.1 c 0,0 7.2,9.5 21.2,6.4 0,0 -5.7,22.6 -7.2,28 -1.5,5.4 -12.7,-9.7 -13.3,-12.2 -0.6,-2.5 -0.8,-20.1 -0.7,-22.2 z"
   id="path3866"
   inkscape:connector-curvature="0"
   style="fill:#bcccd8" />
			<path
   class="st7"
   d="m 809.4,722.3 c -5.9,-7.7 -16.3,-11.7 -18.7,-11.2 -2.4,0.5 -3.6,4.6 -2.3,8.7 1.3,4.1 18.6,20.8 22,19.9 3.4,-0.9 3.8,-5.7 4.3,-8.5 0.5,-2.8 -5.3,-8.9 -5.3,-8.9 z"
   id="path3868"
   inkscape:connector-curvature="0"
   style="fill:#bcccd8" />
			<g
   id="g3878">
				<g
   id="g3876">
					<g
   id="g3874">
						<g
   id="g3872">
							<path
   class="st8"
   d="m 800.7,715 c 0,0 0.3,0.1 0.8,0.4 0.5,0.2 1.2,0.6 2,1.2 0.4,0.3 0.8,0.6 1.3,0.9 0.4,0.3 0.9,0.7 1.3,1.1 0.4,0.4 0.9,0.8 1.3,1.3 0.4,0.5 0.8,1 1.2,1.5 0.4,0.5 0.8,1 1.1,1.6 0.4,0.5 0.7,1.1 1,1.6 0.3,0.5 0.5,1 0.8,1.6 0.2,0.5 0.4,1 0.6,1.4 0.3,0.9 0.5,1.7 0.6,2.2 0.1,0.5 0.1,0.9 0.1,0.9 0,0 -0.2,-0.3 -0.4,-0.8 -0.3,-0.5 -0.6,-1.2 -1.1,-2 -0.2,-0.4 -0.5,-0.8 -0.8,-1.3 -0.3,-0.4 -0.6,-0.9 -0.9,-1.4 -0.3,-0.5 -0.7,-1 -1,-1.5 -0.3,-0.5 -0.7,-1 -1.1,-1.5 -0.4,-0.5 -0.7,-1 -1.1,-1.4 -0.4,-0.5 -0.8,-0.9 -1.2,-1.3 -0.4,-0.4 -0.8,-0.8 -1.1,-1.2 -0.4,-0.4 -0.7,-0.7 -1.1,-1.1 -1.4,-1.3 -2.3,-2.2 -2.3,-2.2 z"
   id="path3870"
   inkscape:connector-curvature="0"
   style="fill:#576d7c" />
						</g>
					</g>
				</g>
			</g>
		</g>
		<g
   id="g3898">
			<path
   class="st5"
   d="m 856.6,641.7 c 0,0 -10.1,5.8 -20.6,-4.6 -10.5,-10.4 -18.6,4.1 -18.4,5.6 0.1,1.5 1.1,18.7 24.4,23.2 23.2,4.6 19.2,-21.9 14.6,-24.2 z"
   id="path3882"
   inkscape:connector-curvature="0"
   style="fill:#fafcff" />
			<path
   class="st9"
   d="m 851.7,645.6 c 0,0 -6.5,6.6 -10.8,18.2 0,0 0.3,-15.9 7.2,-22 6.8,-6.2 5.9,1 3.6,3.8 z"
   id="path3884"
   inkscape:connector-curvature="0"
   style="fill:#8396a5" />
			<path
   class="st7"
   d="m 815,643.4 c 0,0 6.9,4.6 14.6,1.2 7.7,-3.4 8.9,-7.5 8.5,-8.5 -0.4,-1 -5.2,-7.9 -5,-9.8 0,0 4.3,-1.9 6.6,-5.8 2.3,-3.9 0,-8.6 -1.7,-9.9 -1.7,-1.3 -2.9,2 -3.6,5.1 -0.7,3.2 -4.1,4.6 -4.1,4.6 0,0 5,-9.7 0.2,-14.4 -4.8,-4.7 -5,2.3 -4.7,4.4 0.3,2.1 -1.5,5.6 -1.5,5.6 0,0 -1,-6.1 -3.9,-8.3 -3,-2.3 -5,-0.7 -5.3,0.9 -0.3,1.6 2.9,5.8 2.9,7 0,1.2 -4.2,7 -4.2,8.8 -0.1,3.1 3.2,5.2 3.2,5.2 0,0 -4,7.1 -2,13.9 z"
   id="path3886"
   inkscape:connector-curvature="0"
   style="fill:#bcccd8" />
			<g
   id="g3896">
				<g
   id="g3894">
					<g
   id="g3892">
						<g
   id="g3890">
							<path
   class="st8"
   d="m 830.5,622.5 c 0,0 -1.1,-1 -2.8,-2.4 -0.4,-0.3 -0.9,-0.7 -1.4,-1 -0.5,-0.3 -1.1,-0.6 -1.6,-0.7 -0.2,0 -0.4,0 -0.6,0.1 -0.2,0.1 -0.4,0.2 -0.5,0.5 -0.3,0.4 -0.5,1 -0.6,1.7 -0.1,0.3 -0.1,0.7 0,0.9 0,0.1 0.1,0.5 0.3,0.7 0.2,0.3 0.3,0.6 0.5,0.9 0.4,0.6 0.8,1.1 1.2,1.7 0.4,0.6 0.9,1.2 1.1,1.5 -1,-0.4 -1.9,-0.8 -2.5,-1 -0.3,-0.1 -0.6,-0.2 -0.9,-0.2 h -0.3 -0.2 c -0.3,0 -0.5,0 -0.7,0.1 -0.9,0.2 -1.4,1 -1.5,1.6 -0.1,0.3 -0.1,0.5 -0.2,0.7 0,0.2 -0.1,0.3 -0.1,0.3 0,0 0,-0.1 0,-0.3 0,-0.2 -0.1,-0.4 0,-0.8 0,-0.3 0.1,-0.7 0.3,-1.2 0.2,-0.5 0.6,-0.9 1.2,-1.2 0.3,-0.1 0.6,-0.2 1,-0.3 h 0.3 c 0,0 0.1,0 0.1,0 v 0 h 0.1 c 0,0 0.1,0 0.1,0 0,0 -0.1,-0.1 -0.1,-0.1 0,0 -0.1,-0.1 -0.1,-0.1 -0.2,-0.2 -0.4,-0.6 -0.6,-0.9 -0.2,-0.3 -0.4,-0.7 -0.5,-1.3 -0.1,-0.5 0,-0.9 0,-1.3 0.1,-0.8 0.4,-1.6 1,-2.3 0.6,-0.7 1.6,-1.1 2.5,-0.9 0.9,0.2 1.4,0.7 1.9,1.1 0.5,0.4 0.9,0.9 1.3,1.3 0.8,0.8 1.3,1.6 1.7,2.1 0.4,0.5 0.6,0.8 0.6,0.8 z"
   id="path3888"
   inkscape:connector-curvature="0"
   style="fill:#576d7c" />
						</g>
					</g>
				</g>
			</g>
		</g>
		<g
   id="g3906">
			<path
   class="st10"
   d="m 923.2,685.3 c 0,0 12.5,4.4 11.8,15.8 -0.7,11.4 -12.2,20 -22.2,16.5 -11.1,-4 -16.3,-15.9 -33.8,-23.9 -17.5,-8 0.9,0.2 0.9,0.2 l 0.8,-6 c 0,0 4.7,2.6 10.2,6.9 5.5,4.3 16.6,15.6 22.2,18.1 6.4,2.9 15.7,-4.3 16.8,-12 1.1,-7.2 -14,-13.3 -14,-13.3 z"
   id="path3900"
   inkscape:connector-curvature="0"
   style="fill:#dbdbdb" />
			<path
   class="st4"
   d="m 927.7,625.7 c 0,0 5.2,2.1 6,3.4 0.8,1.3 -2.4,15.7 -3.9,17 -1.6,1.4 -8.3,3.7 -8.3,3.7 0,0 -24.9,60.5 -26.4,62.6 0,0 -3.4,-0.3 -6.2,-1.1 -2.8,-0.9 17.2,-59.3 18.3,-60.1 1.1,-0.8 20.5,-25.5 20.5,-25.5 z"
   id="path3902"
   inkscape:connector-curvature="0"
   style="fill:#ffffff" />
			<path
   class="st11"
   d="m 864.1,612.1 c 0,0 2.9,-11.2 4.4,-12.9 0,0 56.8,23.9 59.2,26.5 0,0 -2.4,15.6 -3.9,17.5 -1.5,1.9 -7.8,2.4 -7.8,2.4 0,0 -25.9,64.8 -27.4,65.7 -1.5,0.8 -44.9,-21.3 -44.9,-21.3 z"
   id="path3904"
   inkscape:connector-curvature="0"
   style="fill:#91a1af" />
		</g>
		<g
   id="g3928">
			<path
   class="st7"
   d="m 886.6,741.8 c 0,0 4.4,6.5 5.6,9.1 1.2,2.6 1.7,7.2 4.1,7.9 2.4,0.7 7.7,-2.4 7.4,-11.6 -0.3,-9.2 -5,-20.2 -6,-21.3 -1.1,-1.1 -4.3,-1.2 -6.3,0.3 -2,1.5 -4.8,15.6 -4.8,15.6 z"
   id="path3908"
   inkscape:connector-curvature="0"
   style="fill:#bcccd8" />
			<path
   class="st7"
   d="m 887.1,721.7 c 0,0 2.5,15.7 -9,19.9 0,0 8.2,2.3 9.8,2.3 1.6,0 8.6,-3.5 9.1,-11 0.5,-7.5 -3.8,-8.8 -6,-9.8 -2.2,-1 -3.9,-1.4 -3.9,-1.4 z"
   id="path3910"
   inkscape:connector-curvature="0"
   style="fill:#bcccd8" />
			<path
   class="st5"
   d="m 850.3,700.9 c 0,0 2.4,19.3 12.6,31.8 10.2,12.5 20.8,8.8 22.6,7.2 1.8,-1.5 5.7,-12.3 2.9,-16.3 -2.8,-3.9 -5.3,-3.2 -6.3,-14.3 -1,-11.1 -0.8,-13.9 -2.2,-15.4 -1.4,-1.5 -25.9,-3.9 -29.6,7 z"
   id="path3912"
   inkscape:connector-curvature="0"
   style="fill:#fafcff" />
			<path
   class="st6"
   d="m 873.5,729.3 c 0,0 7.9,-4.5 10,-12.5 0,0 1.8,0.6 1.7,3.2 0,0 -0.4,7.1 -7.8,13 z"
   id="path3914"
   inkscape:connector-curvature="0"
   style="fill:#a3b6c9" />
			<path
   class="st7"
   d="m 876.9,728.6 c -2.8,-3.8 -12.1,-5.1 -15.1,0.1 -3.1,5.2 3.3,10.7 5.2,11.5 1.9,0.8 7.1,2.3 10.1,-0.1 3,-2.4 2.7,-7.6 -0.2,-11.5 z"
   id="path3916"
   inkscape:connector-curvature="0"
   style="fill:#bcccd8" />
			<g
   id="g3926">
				<g
   id="g3924">
					<g
   id="g3922">
						<g
   id="g3920">
							<path
   class="st8"
   d="m 894.6,727.7 c 0,0 0.1,0.3 0.2,0.7 0.1,0.5 0.3,1.1 0.4,2 0,0.4 0.1,0.9 0.1,1.3 0,0.5 0,1 -0.1,1.5 -0.1,0.5 -0.1,1.1 -0.3,1.6 -0.1,0.5 -0.3,1.1 -0.4,1.6 -0.2,0.5 -0.4,1.1 -0.6,1.6 -0.2,0.5 -0.5,1 -0.8,1.4 -0.3,0.4 -0.6,0.9 -0.9,1.2 -0.3,0.4 -0.6,0.7 -0.9,1 -0.6,0.6 -1.1,1.1 -1.5,1.3 -0.4,0.3 -0.6,0.4 -0.6,0.4 0,0 0.1,-0.2 0.4,-0.6 0.3,-0.4 0.6,-1 1,-1.6 0.2,-0.3 0.4,-0.7 0.6,-1.1 0.2,-0.4 0.4,-0.8 0.6,-1.3 0.2,-0.4 0.4,-0.9 0.6,-1.4 0.2,-0.5 0.4,-1 0.6,-1.4 0.2,-0.5 0.3,-1 0.5,-1.5 0.2,-0.5 0.3,-1 0.4,-1.5 0.1,-0.5 0.2,-0.9 0.3,-1.4 0.1,-0.4 0.1,-0.9 0.2,-1.3 0.1,-0.8 0.1,-1.5 0.2,-1.9 -0.1,-0.3 0,-0.6 0,-0.6 z"
   id="path3918"
   inkscape:connector-curvature="0"
   style="fill:#576d7c" />
						</g>
					</g>
				</g>
			</g>
		</g>
		<g
   id="g3956">
			<path
   class="st5"
   d="m 838.1,674.2 c 0,0 -2.4,7.3 3,18.8 5.3,11.6 20.6,16.3 24,16.5 3.5,0.2 13.8,-5.9 16.1,-14.6 2.3,-8.7 -43.1,-20.7 -43.1,-20.7 z"
   id="path3930"
   inkscape:connector-curvature="0"
   style="fill:#fafcff" />
			<path
   class="st9"
   d="m 837.4,672.5 c 0,0 5.3,17.2 4.6,25.2 0,0 2,3 3.4,1.6 1.4,-1.4 1.2,-20.6 -8,-26.8 z"
   id="path3932"
   inkscape:connector-curvature="0"
   style="fill:#8396a5" />
			<path
   class="st9"
   d="m 881.2,697.6 c 0,0 -21.6,-2.7 -30,8.4 0,0 -6.6,-7.9 8.8,-13 9.5,-3.1 21,2.8 21.2,4.6 z"
   id="path3934"
   inkscape:connector-curvature="0"
   style="fill:#8396a5" />
			<path
   class="st5"
   d="m 855.5,643.2 c 0,0 -18.8,15.9 -17.4,31 1.5,15.1 36.3,25.4 42.1,21.4 5.8,-3.9 17.2,-30.7 13.2,-38.7 -3.9,-8 -25.4,-20.2 -37.9,-13.7 z"
   id="path3936"
   inkscape:connector-curvature="0"
   style="fill:#fafcff" />
			<path
   class="st6"
   d="m 838.1,671.7 c 0,0 9.8,18.4 44.8,21.2 0,0 0.8,3.4 -1.7,4.8 -2.5,1.3 -16.2,-1.6 -27.1,-6 -10.9,-4.4 -17.4,-15.3 -17.5,-16.1 -0.1,-0.9 0.1,-2.5 1.5,-3.9 z"
   id="path3938"
   inkscape:connector-curvature="0"
   style="fill:#a3b6c9" />
			<path
   class="st12"
   d="m 848.1,680.2 c 0,0 -4,6.2 -2.3,8.6 1.7,2.4 11.2,7.3 12.8,6.1 1.6,-1.2 3.7,-6.4 3.2,-7.5 -0.5,-1 -12.3,-7.7 -13.7,-7.2 z"
   id="path3940"
   inkscape:connector-curvature="0"
   style="fill:#caddea" />
			<g
   id="g3954">
				<path
   class="st6"
   d="m 853.7,653.7 c 0,0 18.6,7.4 22.5,10.6 0,0 -7.2,19.5 -8.6,22.3 0,0 -21,-9.4 -22.9,-11.8 0.1,0 6.9,-18.3 9,-21.1 z"
   id="path3942"
   inkscape:connector-curvature="0"
   style="fill:#a3b6c9" />
				<path
   class="st5"
   d="m 854.3,655 c 0,0 17.1,6.8 20.7,9.7 0,0 -6.6,17.9 -7.9,20.4 0,0 -19.3,-8.6 -21,-10.8 0,0.1 6.2,-16.7 8.2,-19.3 z"
   id="path3944"
   inkscape:connector-curvature="0"
   style="fill:#fafcff" />
				<path
   class="st13"
   d="m 856.2,658.4 c 0,0 4.7,2.2 5.3,2.8 0,0 -5.7,15 -6.1,15.9 0,0 -4,-2.4 -5,-2.8 -1.1,-0.4 5.8,-15.9 5.8,-15.9 z"
   id="path3946"
   inkscape:connector-curvature="0"
   style="fill:#37536d" />
				
					<circle
   transform="matrix(0.8525,-0.5227,0.5227,0.8525,-219.8464,551.7025)"
   class="st13"
   cx="867.79999"
   cy="665.5"
   id="ellipse3948"
   r="2.2"
   style="fill:#37536d" />
				
					<circle
   transform="matrix(0.8525,-0.5227,0.5227,0.8525,-223.2429,551.0829)"
   class="st13"
   cx="865"
   cy="671.20001"
   id="ellipse3950"
   r="2.2"
   style="fill:#37536d" />
				
					<circle
   transform="matrix(0.8525,-0.5227,0.5227,0.8525,-227.2718,550.6597)"
   class="st13"
   cx="862.29999"
   cy="678.09998"
   id="ellipse3952"
   r="2.2"
   style="fill:#37536d" />
			</g>
		</g>
		<g
   id="g3976">
			<path
   class="st5"
   d="m 896.2,655.4 c 0,0 16,5.8 24.1,14.5 8.2,8.7 5.2,16.7 2.8,21 -2.4,4.3 -13,6.7 -14.8,6.5 -1.8,-0.2 -14.4,-11.7 -14.4,-11.7 0,0 -6.6,-1.1 -7.7,-2.7 -1.1,-1.6 -3.8,-9 -0.7,-15.2 3.1,-6.2 10.7,-12.4 10.7,-12.4 z"
   id="path3958"
   inkscape:connector-curvature="0"
   style="fill:#fafcff" />
			<path
   class="st9"
   d="m 898.6,656.4 c 0,0 -9.2,3.4 -9,21.4 0,0 -4.8,-2.8 -3.1,-11.8 1.7,-9 11.2,-14.2 12.1,-9.6 z"
   id="path3960"
   inkscape:connector-curvature="0"
   style="fill:#8396a5" />
			<path
   class="st7"
   d="m 896.8,675.1 c 0,0 9.8,-4.1 15.5,-1.5 5.7,2.6 8.4,12.2 6.1,18 -2.3,5.8 -9.8,7.6 -13.2,6.7 -3.4,-0.8 -9,-4.6 -12.2,-9.2 -3.2,-4.6 3.8,-14 3.8,-14 z"
   id="path3962"
   inkscape:connector-curvature="0"
   style="fill:#bcccd8" />
			<path
   class="st12"
   d="m 892.3,688.2 c 0,0 4.3,6 6.5,6.2 2.3,0.2 14.7,-9.4 15.6,-12.1 0.9,-2.7 -1.7,-4.5 -3.2,-3.5 -1.5,0.9 -5.4,3.2 -7.3,3.6 0,0 4.8,-7.3 3,-10.6 -1.7,-3.2 -4.9,-1.3 -5.3,0.1 -0.5,1.5 -2.3,5.5 -2.8,6.2 0,0 -0.3,-6.4 -2.7,-9.1 -2.4,-2.7 -4.6,0.9 -4.4,2.7 0.2,1.8 1,7.8 0.6,8.6 -0.4,0.8 -4.6,2.4 -5.1,1.9 -0.5,-0.5 -3.2,-1.7 -4.1,-0.2 -0.9,1.5 1.8,6.5 9.2,6.2 z"
   id="path3964"
   inkscape:connector-curvature="0"
   style="fill:#caddea" />
			<g
   id="g3974">
				<g
   id="g3972">
					<g
   id="g3970">
						<g
   id="g3968">
							<path
   class="st8"
   d="m 893.9,687.1 c 0,0 0,-0.1 0.1,-0.3 0.1,-0.2 0.2,-0.4 0.4,-0.7 0.1,-0.1 0.2,-0.3 0.4,-0.4 0.2,-0.1 0.3,-0.2 0.5,-0.3 0.2,-0.1 0.4,-0.2 0.6,-0.2 0.2,-0.1 0.4,-0.1 0.7,-0.1 0.2,0 0.5,0 0.7,0.1 0.2,0 0.4,0.1 0.6,0.2 0.2,0.1 0.4,0.2 0.5,0.3 0.2,0.1 0.3,0.2 0.4,0.4 0.2,0.2 0.4,0.5 0.4,0.7 0.1,0.2 0.1,0.3 0.1,0.3 0,0 -0.1,0 -0.3,-0.1 -0.2,-0.1 -0.4,-0.1 -0.7,-0.2 l -0.4,-0.1 c -0.1,0 -0.3,0 -0.4,-0.1 -0.2,0 -0.3,0 -0.5,0 -0.2,0 -0.3,0 -0.5,0 -0.2,0 -0.3,0 -0.5,0 -0.2,0 -0.3,0 -0.5,0 -0.1,0 -0.3,0 -0.4,0.1 -0.1,0 -0.3,0 -0.4,0.1 -0.4,0.2 -0.8,0.3 -0.8,0.3 z"
   id="path3966"
   inkscape:connector-curvature="0"
   style="fill:#576d7c" />
						</g>
					</g>
				</g>
			</g>
		</g>
		<g
   id="g3990">
			<path
   class="st5"
   d="m 854.4,641.3 c -2,-2.2 -1.5,-8.3 -1.3,-10.9 0.7,-8.1 4.2,-15.8 12,-19.5 11.3,-5.4 27.4,-0.9 34.9,8.8 5.2,6.7 6.7,15.6 3.7,23.6 -4.6,12.5 -15.4,13.6 -15.4,13.6 0,0 -25.5,-6.1 -33.9,-15.6 z"
   id="path3978"
   inkscape:connector-curvature="0"
   style="fill:#fafcff" />
			<path
   class="st14"
   d="m 856.4,640.5 c -3,-2.9 -0.5,-11.6 0.9,-14.9 2.3,-5.7 7.9,-10.1 14,-11.1 12,-1.9 24.2,10.1 22,22.1 -0.8,4.2 -2.8,8 -5.3,11.4 -3.9,5.5 -6.7,5.3 -12.5,3.7 -7.2,-2 -13.7,-6 -19.1,-11.2 z"
   id="path3980"
   inkscape:connector-curvature="0"
   style="fill:#284256" />
			<path
   class="st6"
   d="m 853.3,646.2 c -0.9,-0.9 -3.8,-2.2 -2.8,-4.2 0.7,-1.2 2.3,-3.7 3.1,-3.6 1.3,0.1 3,1.6 5.9,3.3 4.6,2.8 21.9,8.9 28.8,10 6.9,1.1 9.1,2.7 8.6,4.8 -0.5,2.1 -7.8,6.6 -22.1,1 -11.6,-4.4 -18,-7.7 -21.5,-11.3 z"
   id="path3982"
   inkscape:connector-curvature="0"
   style="fill:#a3b6c9" />
			<path
   class="st7"
   d="m 906.7,637.3 c -2.1,-4.3 -11.6,0.2 -13.5,6.1 -1.9,5.9 0.7,9.3 3.6,10.2 4.1,1.3 13.2,-9.4 9.9,-16.3 z"
   id="path3984"
   inkscape:connector-curvature="0"
   style="fill:#bcccd8" />
			<path
   class="st15"
   d="m 858.9,625.3 c 1.5,-5.9 11.1,-10.2 17.8,-6.9 6.7,3.3 13.3,10.7 9.3,17.3 -4.1,6.5 -31.1,4.8 -27.1,-10.4 z"
   id="path3986"
   inkscape:connector-curvature="0"
   style="fill:#3f617a" />
			<path
   class="st4"
   d="m 869.2,617.4 c -6.9,0 -5.8,8 -1.1,8.7 4.7,0.6 6.4,-8.7 1.1,-8.7 z"
   id="path3988"
   inkscape:connector-curvature="0"
   style="fill:#ffffff" />
		</g>
	</g>
</g>



</svg>